<?xml version="1.0" encoding="utf-8"?>
<svg viewBox="0 0 500 500" xmlns="http://www.w3.org/2000/svg">
  <g transform="matrix(6.975645, 0, 0, 6.863629, -89.240619, -163.522664)" style="">
    <g>
      <g>
        <g>
          <g>
            <g>
              <path d="M 53.3 84.3 c 0.9 1.4 2 2.7 3.4 3.6 c 2 1.4 4.3 2.2 6.9 2.2 c 5.6 0 10.2 -3.8 11.6 -8.9 c 0.3 -1 0.4 -2 0.4 -3.1 c 0 -0.4 0 -0.7 -0.1 -1.1 c -0.4 -5.2 -4.2 -9.4 -9 -10.6 c -0.9 -0.2 -1.9 -0.4 -2.9 -0.4 c -0.4 0 -0.8 0 -1.3 0.1 c -0.2 0 -0.4 0 -0.6 0.1 c -5.8 0.9 -10.2 5.9 -10.2 11.9 C 51.6 80.4 52.2 82.5 53.3 84.3 z M 49 84.6 c -0.9 -2 -1.4 -4.2 -1.4 -6.5 c 0 -7.3 4.9 -13.4 11.5 -15.4 c 0.4 -0.1 0.9 -0.2 1.3 -0.3 c -1.6 -2.6 -3.5 -4.6 -5.6 -6.1 c -1 -0.8 -2.1 -1.4 -3.2 -1.8 c -1.3 -0.5 -2.5 -0.8 -3.7 -0.8 c -1 0 -2.1 0.2 -3.1 0.6 c -1.1 0.4 -2.2 0.9 -3.3 1.7 c -5.1 3.4 -9.8 10.7 -9.8 20.7 c 0 0.9 0.1 1.7 0.5 2.4 c 0.3 0.8 0.8 1.4 1.4 2 c 0.7 0.6 1.6 1.2 2.7 1.6 C 39.5 84.1 44.3 84.8 49 84.6 z M 82.5 72 c 0 2.6 -1 4.8 -2.8 6.6 c 0 0 0 0.1 -0.1 0.1 c -0.3 8.6 -7.3 15.5 -16 15.5 c -4.8 0 -9.1 -2.1 -12 -5.4 C 43.7 89.4 34.8 88 30.8 84 c -0.4 -0.4 -0.7 -0.8 -1.1 -1.2 c -5.2 -0.3 -10.1 -1.7 -12.7 -4.3 c -1.8 -1.8 -2.8 -4 -2.8 -6.6 c 0 -5.4 1.8 -11.4 4.8 -16 c 1.5 -2.3 3.2 -4.1 5.1 -5.5 c 0.3 -0.3 0.4 -0.7 0.5 -1.1 c 0.1 -0.6 -0.1 -1.3 -0.5 -1.8 c -1.8 -2 -3 -4.7 -3 -7.7 c 0 -6.3 5.1 -11.4 11.4 -11.4 c 2.9 0 5.5 1.1 7.5 2.9 c 2.2 -1.8 4.9 -2.8 7.9 -2.8 c 3.2 0 6.1 1.2 8.3 3.1 c 2 -2 4.8 -3.2 7.9 -3.2 c 6.3 0 11.4 5.1 11.4 11.4 c 0 2.9 -1.1 5.6 -3 7.7 c -0.4 0.6 -0.5 1.2 -0.5 1.8 c 0.1 0.4 0.2 0.8 0.5 1.1 c 1.9 1.4 3.6 3.2 5.1 5.5 C 80.7 60.6 82.5 66.6 82.5 72 z M 78.8 73 c 0.1 -0.3 0.1 -0.7 0.1 -1.1 c 0 -12.8 -8.6 -20.7 -14.7 -20.7 c -1.9 0 -4.1 0.8 -6.2 2.2 c 1.8 1.4 3.5 3.3 4.9 5.5 c 0.7 1 1.3 2.1 1.8 3.2 C 71.3 62.6 76.8 67 78.8 73 z M 70.5 44.4 c 0.9 -1.3 1.4 -2.8 1.4 -4.5 c 0 -4.3 -3.5 -7.8 -7.8 -7.8 c -2.2 0 -4.1 0.9 -5.5 2.3 c 1.2 2 2 4.3 2 6.7 c 0 1.8 -0.4 3.4 -1 5 c 1.3 1 2.9 1.5 4.6 1.5 c 2.2 0 4.2 -0.9 5.6 -2.4 C 70 45 70.2 44.7 70.5 44.4 z M 56.4 40.9 c 0 -4.7 -3.8 -8.5 -8.5 -8.5 c -4.7 0 -8.5 3.8 -8.5 8.5 s 3.8 8.5 8.5 8.5 C 52.6 49.4 56.4 45.6 56.4 40.9 z M 35.4 41.2 c 0 -2.7 0.8 -5.1 2.2 -7.1 c -1.4 -1.2 -3.1 -1.9 -5.1 -1.9 c -4.3 0 -7.8 3.5 -7.8 7.8 c 0 1.7 0.5 3.2 1.5 4.5 c 0.3 0.3 0.5 0.6 0.7 0.9 c 1.4 1.5 3.4 2.4 5.6 2.4 c 1.5 0 2.9 -0.4 4 -1.2 C 35.8 44.9 35.4 43.1 35.4 41.2 z M 33 59 c 1.5 -2.4 3.3 -4.3 5.3 -5.8 c -1.9 -1.3 -4 -2 -5.8 -2 c -6.1 0 -14.7 7.9 -14.7 20.7 c 0 1.6 0.5 2.9 1.7 4 c 1.6 1.5 4.8 2.5 8.4 2.9 c -0.2 -0.7 -0.2 -1.4 -0.2 -2.2 C 27.7 70.7 29.7 64.1 33 59 z"/>
            </g>
          </g>
        </g>
      </g>
    </g>
  </g>
  <g transform="matrix(7.242162, 0, 0, 6.764237, -101.20032, -162.950902)" style="">
    <path d="M 61.5 74.6 c 0 -0.9 0.5 -1.5 1.4 -1.5 c 0.9 0 1.4 0.6 1.4 1.5 v 3.2 h 3.2 c 0.9 0 1.5 0.5 1.5 1.4 s -0.6 1.4 -1.5 1.4 h -3.2 v 3.2 c 0 0.9 -0.5 1.5 -1.4 1.5 c -0.9 0 -1.4 -0.6 -1.4 -1.5 v -3.2 h -3.2 c -0.9 0 -1.5 -0.6 -1.5 -1.4 c 0 -0.9 0.6 -1.4 1.5 -1.4 h 3.2 V 74.6 z"/>
  </g>
</svg>